<?xml version="1.0" standalone="no"?>
<!DOCTYPE svg PUBLIC "-//W3C//DTD SVG 20010904//EN"
 "http://www.w3.org/TR/2001/REC-SVG-20010904/DTD/svg10.dtd">
<svg version="1.0" xmlns="http://www.w3.org/2000/svg"
 width="300.000000pt" height="300.000000pt" viewBox="0 0 300.000000 300.000000"
 preserveAspectRatio="xMidYMid meet">
<metadata>
Created by potrace 1.11, written by Peter Selinger 2001-2013
</metadata>
<g transform="translate(0.000000,300.000000) scale(0.100000,-0.100000)"
fill="#000000" stroke="none">
<path d="M1383 2075 c-85 -23 -171 -62 -225 -101 -57 -42 -36 -43 -213 11
-119 36 -256 45 -320 21 -93 -36 -122 -124 -73 -225 29 -59 130 -158 228 -223
l77 -51 6 -96 c4 -72 13 -116 35 -177 84 -229 240 -366 467 -410 76 -15 100
-16 183 -6 174 22 332 105 446 235 l55 63 73 -9 c105 -13 274 -4 323 17 64 27
85 53 85 102 0 38 -6 49 -49 92 -49 49 -157 117 -262 164 -55 25 -56 26 -62
76 -8 68 -57 189 -106 261 -80 118 -233 223 -372 256 -79 18 -227 18 -296 0z
m316 -32 c161 -44 297 -156 369 -305 36 -73 67 -182 57 -199 -4 -5 -125 12
-185 27 -14 3 -22 3 -19 0 7 -8 175 -56 194 -56 11 0 15 -11 15 -41 l0 -41
-42 7 c-24 4 -83 18 -133 30 -49 13 -91 22 -93 20 -5 -4 95 -35 196 -61 70
-18 73 -20 67 -44 -8 -29 -20 -39 -44 -34 -9 2 -88 17 -176 34 -88 17 -171 34
-185 37 -14 3 -23 3 -19 0 7 -8 223 -62 324 -82 43 -8 80 -16 82 -18 2 -2 1
-12 -3 -21 -9 -22 -56 -21 -194 8 -239 50 -529 141 -780 246 -69 28 -142 59
-162 67 -40 17 -47 37 -25 68 12 16 18 16 47 6 18 -6 35 -9 37 -7 3 2 -12 9
-31 16 -41 13 -43 19 -18 49 l17 21 65 -24 c109 -40 119 -39 32 3 -73 36 -82
42 -73 59 22 42 32 42 140 6 106 -35 150 -41 64 -9 -27 10 -52 21 -58 25 -5 4
-27 13 -47 19 -21 7 -38 16 -38 21 0 5 20 25 45 45 l45 37 111 -47 c61 -26
113 -44 116 -42 2 3 -6 8 -19 13 -12 4 -60 25 -106 47 l-84 39 42 24 c46 26
70 29 103 13 20 -9 20 -9 -2 9 l-24 19 69 16 c38 9 83 18 99 20 53 6 168 -4
224 -20z m-798 -77 c52 -13 112 -31 133 -40 l40 -17 -26 -25 c-20 -21 -29 -24
-45 -16 -31 17 -178 52 -218 52 -42 0 -90 -22 -99 -45 -15 -39 -4 -60 67 -129
98 -95 260 -181 532 -284 448 -168 982 -271 1065 -204 14 11 19 23 14 35 -8
23 -75 68 -136 93 -37 14 -48 24 -48 41 0 12 5 25 10 28 17 10 186 -85 245
-137 94 -84 86 -143 -24 -175 -73 -21 -303 -13 -454 16 -232 44 -522 127 -727
207 -36 14 -78 31 -95 37 -69 27 -276 136 -345 182 -92 62 -187 156 -211 210
-27 58 -25 126 4 152 54 49 172 56 318 19z m32 -104 c32 -11 60 -22 63 -25 3
-3 -11 -27 -30 -55 -20 -27 -41 -64 -47 -81 -6 -17 -15 -31 -19 -31 -14 0
-125 86 -152 118 -63 75 -43 107 62 99 36 -3 91 -14 123 -25z m127 -459 c156
-71 337 -137 530 -192 128 -37 360 -91 389 -91 25 0 26 -8 6 -30 -15 -16 -22
-16 -91 -3 -105 20 -117 10 -16 -13 l83 -20 -26 -24 -25 -24 -90 19 c-109 22
-130 14 -28 -10 40 -10 77 -21 82 -26 15 -14 -85 -70 -119 -65 -16 2 -22 1
-12 -1 28 -7 20 -20 -24 -37 -226 -91 -477 -44 -644 119 -60 58 -121 142 -112
152 3 2 15 -1 27 -7 33 -18 233 -91 237 -87 2 2 -18 12 -44 22 -27 10 -94 40
-149 67 -96 47 -102 52 -113 90 -7 22 -10 42 -8 44 2 3 38 -11 80 -30 122 -55
131 -51 15 8 -94 49 -107 59 -113 86 -4 17 -5 34 -2 36 3 3 37 -11 76 -30 39
-20 119 -56 178 -80 115 -47 402 -140 409 -133 2 2 -47 21 -108 41 -230 76
-476 183 -540 235 -10 8 -18 25 -18 37 l0 24 53 -24 c28 -13 81 -37 117 -53z
m1183 -56 c133 -62 127 -91 -16 -84 -48 3 -90 6 -92 9 -4 4 8 57 20 96 6 17 7
16 88 -21z"/>
<path d="M1655 1050 c11 -5 29 -8 40 -8 16 0 15 2 -5 8 -34 11 -60 11 -35 0z"/>
<path d="M1658 943 c7 -3 16 -2 19 1 4 3 -2 6 -13 5 -11 0 -14 -3 -6 -6z"/>
</g>
</svg>
